<?xml version="1.0" encoding="UTF-8" standalone="no"?>
<!-- Created with Inkscape (http://www.inkscape.org/) -->

<svg
   xmlns:dc="http://purl.org/dc/elements/1.1/"
   xmlns:cc="http://creativecommons.org/ns#"
   xmlns:rdf="http://www.w3.org/1999/02/22-rdf-syntax-ns#"
   xmlns:svg="http://www.w3.org/2000/svg"
   xmlns="http://www.w3.org/2000/svg"
   xmlns:sodipodi="http://sodipodi.sourceforge.net/DTD/sodipodi-0.dtd"
   xmlns:inkscape="http://www.inkscape.org/namespaces/inkscape"
   version="1.1"
   width="52.136917"
   height="50"
   id="svg2"
   xml:space="preserve"
   inkscape:version="0.48.4 r9939"
   sodipodi:docname="logo.svg"><sodipodi:namedview
     pagecolor="#ffffff"
     bordercolor="#666666"
     borderopacity="1"
     objecttolerance="10"
     gridtolerance="10"
     guidetolerance="10"
     inkscape:pageopacity="0"
     inkscape:pageshadow="2"
     inkscape:window-width="1280"
     inkscape:window-height="996"
     id="namedview21"
     showgrid="false"
     fit-margin-top="0"
     fit-margin-left="0"
     fit-margin-right="0"
     fit-margin-bottom="0"
     inkscape:zoom="1"
     inkscape:cx="19.989748"
     inkscape:cy="32.16735"
     inkscape:window-x="0"
     inkscape:window-y="0"
     inkscape:window-maximized="1"
     inkscape:current-layer="svg2" /><metadata
     id="metadata8"><rdf:RDF><cc:Work
         rdf:about=""><dc:format>image/svg+xml</dc:format><dc:type
           rdf:resource="http://purl.org/dc/dcmitype/StillImage" /><dc:title /></cc:Work></rdf:RDF></metadata><defs
     id="defs6" /><g
     transform="matrix(1.6301141,0,0,-1.6301141,-20.971092,78.893121)"
     id="g10"><g
       transform="scale(0.1,0.1)"
       id="g12"><g
         id="g3785"><path
           d="m 276.559,205.945 0,-28.699 24.039,0 0,28.699 c -3.672,-0.605 -7.66,-0.925 -12.028,-0.925 -4.355,0 -8.355,0.32 -12.011,0.925"
           id="path16"
           style="fill:#000000;fill-opacity:1;fill-rule:nonzero;stroke:none"
           inkscape:connector-curvature="0" /><path
           d="m 401.809,392.246 -13.594,0 c -0.981,-1.262 -1.953,-2.512 -2.934,-3.785 -5.093,-6.625 -10.371,-13.438 -15.625,-20.254 l 32.153,0 0,24.039"
           id="path18"
           style="fill:#000000;fill-opacity:1;fill-rule:nonzero;stroke:none"
           inkscape:connector-curvature="0" /><path
           d="m 439.719,469.332 -19.067,14.641 -7.324,-9.524 c -0.254,-0.351 -6.933,-9.019 -17.207,-22.383 l 30.317,0 c 3.652,4.735 5.82,7.543 5.957,7.739 l 7.324,9.527"
           id="path20"
           style="fill:#000000;fill-opacity:1;fill-rule:nonzero;stroke:none"
           inkscape:connector-curvature="0" /><path
           d="m 331.438,368.207 c -8.672,-11.187 -17.051,-22.008 -24.653,-31.773 l 0,-22.422 12.988,0 c 12.168,15.605 27.09,34.855 42.051,54.195 6.235,8.086 12.5,16.188 18.559,24.039 6.289,8.164 12.359,16.035 18.023,23.383 l -30.347,0 c -7.891,-10.246 -12.817,-16.609 -18.047,-23.383 -6.172,-8.012 -12.446,-16.113 -18.574,-24.039"
           id="path22"
           style="fill:#000000;fill-opacity:1;fill-rule:nonzero;stroke:none"
           inkscape:connector-curvature="0" /><path
           d="m 251.598,228.457 c 4.254,-8.879 12.64,-14.375 24.961,-16.437 3.656,-0.606 7.656,-0.934 12.011,-0.934 4.368,0 8.356,0.328 12.028,0.934 12.3,2.062 20.703,7.558 24.937,16.437 5.86,12.219 2.485,28.145 -10.547,49.133 l -8.203,0 0,-45.227 -4.082,-1.484 c -3.594,-1.301 -8.355,-1.953 -14.133,-1.953 -5.789,0 -10.539,0.652 -14.129,1.953 l -4.086,1.484 0,45.227 -8.207,0 c -13.023,-20.988 -16.402,-36.914 -10.55,-49.133"
           id="path24"
           style="fill:#000000;fill-opacity:1;fill-rule:nonzero;stroke:none"
           inkscape:connector-curvature="0" /><path
           d="m 128.648,421.832 37.489,0 c -6.016,7.805 -11.356,14.754 -15.59,20.254 -1.039,1.355 -1.992,2.59 -2.902,3.777 l -18.997,0 0,-24.031"
           id="path26"
           style="fill:#000000;fill-opacity:1;fill-rule:nonzero;stroke:none"
           inkscape:connector-curvature="0" /><path
           d="m 212.125,421.832 64.434,0 0,-23.387 24.039,0 0,23.387 147.886,0 0,24.031 -254.867,0 15.598,-20.254 c 0.957,-1.234 1.937,-2.515 2.91,-3.777"
           id="path28"
           style="fill:#000000;fill-opacity:1;fill-rule:nonzero;stroke:none"
           inkscape:connector-curvature="0" /><path
           d="m 276.559,253.984 0,-17.273 c 2.386,-0.871 6.207,-1.582 12.011,-1.582 5.817,0 9.621,0.711 12.028,1.582 l 0,40.879 -24.039,0 0,-23.606"
           id="path30"
           style="fill:#000000;fill-opacity:1;fill-rule:nonzero;stroke:none"
           inkscape:connector-curvature="0" /><path
           d="m 300.598,362.012 -24.039,0 0,-26.387 0.121,-21.613 23.918,0 0,48"
           id="path32"
           style="fill:#000000;fill-opacity:1;fill-rule:nonzero;stroke:none"
           inkscape:connector-curvature="0" /><path
           d="m 276.559,368.207 46.925,0 c 6.133,7.926 12.407,16.027 18.594,24.039 l -107.121,0 c 5.234,-6.773 10.481,-13.558 15.652,-20.242 1.032,-1.336 1.996,-2.578 2.938,-3.797 l 23.012,0"
           id="path34"
           style="fill:#000000;fill-opacity:1;fill-rule:nonzero;stroke:none"
           inkscape:connector-curvature="0" /><path
           d="m 350.012,392.246 -0.102,0"
           id="path36"
           style="fill:#000000;fill-opacity:1;fill-rule:nonzero;stroke:none"
           inkscape:connector-curvature="0" /><path
           d="m 245.707,368.207 c 0,0 -12.391,16.027 -18.582,24.039 -7.852,10.172 -15.594,20.203 -22.824,29.586 -6.719,8.715 -13,16.879 -18.516,24.031 -12.949,16.828 -21.676,28.184 -21.976,28.586 l -7.325,9.524 -19.062,-14.641 7.324,-9.527 c 0.199,-0.266 4.203,-5.469 10.719,-13.942 4.91,-6.386 11.254,-14.633 18.496,-24.031 10.519,-13.668 22.934,-29.762 35.57,-46.133 8.067,-10.441 16.215,-20.976 24.032,-31.07 8.527,-10.996 16.628,-21.43 23.8,-30.617 l 13.145,0 -0.153,22 -24.648,32.195"
           id="path38"
           style="fill:#000000;fill-opacity:1;fill-rule:nonzero;stroke:none"
           inkscape:connector-curvature="0" /><path
           d="m 211.992,363.738 -2.461,3.176 0,-155.828 24.032,0 0,72.691 106.308,0 0,24.036 -106.308,0 0,28.023 c -7.063,9.129 -14.344,18.543 -21.571,27.902"
           id="path40"
           style="fill:#000000;fill-opacity:1;fill-rule:nonzero;stroke:none"
           inkscape:connector-curvature="0" /></g></g></g></svg>