<svg id="Calque_1" data-name="Calque 1" xmlns="http://www.w3.org/2000/svg" viewBox="0 0 400 250"><defs><style>.cls-1,.cls-2,.cls-3{fill:#fff;}.cls-1,.cls-3{stroke:#000;stroke-miterlimit:10;}.cls-1{stroke-width:5px;}.cls-4{font-size:17px;font-family:Combat, Combat;}.cls-5{font-size:15.22px;font-family:SportingGrotesque-Gras, Sporting Grotesque;}</style></defs><title>Plan de travail 2</title><path class="cls-1" d="M191.77,16.23h22.88a105.38,105.38,0,0,1,0,210.77H191.77"/><polygon points="285.74 114.9 318.76 113.4 318.76 116.4 285.74 114.9"/><polygon points="282.49 108.29 318.76 106.79 318.76 109.79 282.49 108.29"/><polygon points="284.71 101.89 317.73 100.39 317.73 103.39 284.71 101.89"/><polygon points="279.37 94.97 314.25 93.47 314.25 96.47 279.37 94.97"/><polygon points="278.03 88.5 312.75 87 312.75 90 278.03 88.5"/><polygon points="278.03 82.17 311.06 80.67 311.06 83.67 278.03 82.17"/><polygon points="274.7 76.37 307.72 74.87 307.72 77.87 274.7 76.37"/><polygon points="272.42 69.95 305.44 68.45 305.44 71.45 272.42 69.95"/><polygon points="269.36 64.34 302.38 62.84 302.38 65.84 269.36 64.34"/><polygon points="264.1 58.54 297.13 57.04 297.13 60.04 264.1 58.54"/><polygon points="261.41 53.19 294.43 51.69 294.43 54.69 261.41 53.19"/><polygon points="255.91 48.23 288.93 46.73 288.93 49.73 255.91 48.23"/><polygon points="251.04 43.36 284.06 41.86 284.06 44.86 251.04 43.36"/><polygon points="246.41 39.16 279.43 37.66 279.43 40.66 246.41 39.16"/><polygon points="242.07 34.82 275.09 33.32 275.09 36.32 242.07 34.82"/><polygon points="236.38 30.97 269.4 29.47 269.4 32.47 236.38 30.97"/><polygon points="233.28 27.25 260.61 25.75 260.61 28.75 233.28 27.25"/><polygon points="221.58 24.11 254.6 22.61 254.6 25.61 221.58 24.11"/><polygon points="216.08 21.5 249.1 20 249.1 23 216.08 21.5"/><polygon points="294.54 121.62 318.76 120.12 318.76 123.12 294.54 121.62"/><polygon points="285.74 128.33 318.76 126.83 318.76 129.83 285.74 128.33"/><polygon points="282.49 134.94 318.76 133.44 318.76 136.44 282.49 134.94"/><polygon points="282.49 141.34 318.19 139.84 318.19 142.84 282.49 141.34"/><polygon points="279.37 148.26 314.25 146.76 314.25 149.76 279.37 148.26"/><polygon points="278.03 154.73 315.51 153.23 315.51 156.23 278.03 154.73"/><polygon points="278.03 161.06 311.06 159.56 311.06 162.56 278.03 161.06"/><polygon points="274.7 166.86 307.72 165.36 307.72 168.36 274.7 166.86"/><polygon points="272.42 173.28 305.44 171.78 305.44 174.78 272.42 173.28"/><polygon points="269.81 178.89 302.83 177.39 302.83 180.39 269.81 178.89"/><polygon points="264.1 184.69 297.13 183.19 297.13 186.19 264.1 184.69"/><polygon points="261.91 190.04 294.93 188.54 294.93 191.54 261.91 190.04"/><polygon points="255.91 195 288.93 193.5 288.93 196.5 255.91 195"/><polygon points="251.04 199.87 284.06 198.37 284.06 201.37 251.04 199.87"/><polygon points="246.41 204.07 279.43 202.57 279.43 205.57 246.41 204.07"/><polygon points="242.07 208.41 275.09 206.91 275.09 209.91 242.07 208.41"/><polygon points="236.38 212.26 269.4 210.76 269.4 213.76 236.38 212.26"/><polygon points="233.28 215.98 258.58 214.48 258.58 217.48 233.28 215.98"/><polygon points="221.58 219.12 254.6 217.62 254.6 220.62 221.58 219.12"/><polygon points="214.66 222 247.68 220.5 247.68 223.5 214.66 222"/><circle class="cls-1" cx="190.5" cy="121.48" r="105.38"/><path class="cls-2" d="M173,181.37a62.41,62.41,0,0,1-.14-119.75"/><path d="M172.92,181.52l-1.71-.55a46.52,46.52,0,0,1-4.8-1.7c-1-.44-2.17-.85-3.36-1.43l-3.83-2c-1.33-.77-2.71-1.65-4.18-2.55s-2.87-2.06-4.4-3.19a65.46,65.46,0,0,1-8.76-8.53,60.53,60.53,0,0,1-7.67-11.33l-1.61-3.22c-.5-1.1-.92-2.25-1.39-3.38l-.68-1.72-.55-1.77c-.35-1.19-.78-2.37-1.06-3.59a69.36,69.36,0,0,1-2-15.05l.1-3.81c0-.63,0-1.24.08-1.88l.21-1.92.21-1.92a16.29,16.29,0,0,1,.27-1.9l.73-3.72c.24-1.24.65-2.43,1-3.64L130,101c.19-.59.43-1.17.64-1.75.45-1.15.86-2.31,1.32-3.44l1.56-3.29A59.11,59.11,0,0,1,141.21,81c.73-.82,1.38-1.7,2.15-2.44l2.23-2.24a27.58,27.58,0,0,1,2.27-2l2.24-1.89c1.54-1.14,3-2.2,4.48-3.17s2.92-1.74,4.26-2.49l3.9-1.9c1.22-.55,2.39-.92,3.42-1.33a25.57,25.57,0,0,1,2.79-1L171,62l1.74-.47.08.29-1.67.68c-1.07.48-2.72,1-4.64,2-1,.5-2.07,1-3.21,1.62l-3.66,2.12c-1.26.83-2.56,1.76-4,2.71s-2.69,2.16-4.13,3.32a68,68,0,0,0-8.17,8.59c-1.36,1.61-2.54,3.42-3.8,5.23-.65.89-1.14,1.9-1.72,2.86a31,31,0,0,0-1.62,3L134.77,97c-.46,1.07-.87,2.17-1.31,3.26-.21.55-.45,1.09-.64,1.65l-.53,1.7c-.33,1.14-.77,2.27-1,3.45l-.8,3.54a14.8,14.8,0,0,0-.31,1.78l-.25,1.79-.26,1.8c-.08.6-.08,1.24-.13,1.86l-.2,3.7a67.15,67.15,0,0,0,1.61,14.56c.25,1.19.64,2.33,1,3.49l.49,1.73L133,143c.43,1.11.81,2.23,1.27,3.31l1.49,3.17a32.7,32.7,0,0,0,1.63,3l.84,1.47.42.73.47.69,1.87,2.73c.59.92,1.33,1.71,2,2.56a64.22,64.22,0,0,0,8.34,8.62c1.46,1.15,2.86,2.26,4.23,3.27s2.76,1.83,4,2.64l3.73,2c1.17.61,2.29,1,3.28,1.51a46.18,46.18,0,0,0,4.73,1.83l1.7.6Z"/><polyline class="cls-3" points="114.5 134.07 170.69 134.07 170.69 108.89 114.5 108.89"/><path class="cls-2" d="M208.17,61.63a62.41,62.41,0,0,1,0,119.71"/><path d="M208.22,61.48l1.71.55a46.52,46.52,0,0,1,4.8,1.71c1,.44,2.16.85,3.36,1.43l3.82,2c1.32.78,2.7,1.65,4.17,2.55s2.87,2.07,4.39,3.2a65.32,65.32,0,0,1,8.74,8.54,60.4,60.4,0,0,1,7.64,11.33l1.6,3.22c.49,1.1.91,2.25,1.38,3.38.22.57.47,1.14.67,1.72l.55,1.77c.35,1.19.78,2.36,1.06,3.59l.82,3.68a15.28,15.28,0,0,1,.32,1.87l.26,1.88.26,1.89c.09.63.08,1.27.13,1.9l.2,3.87-.1,3.75c0,.63,0,1.24-.08,1.88l-.21,1.92-.21,1.92a15.55,15.55,0,0,1-.28,1.89l-.73,3.72c-.25,1.24-.65,2.43-1,3.64L251,142c-.2.59-.43,1.16-.65,1.74-.45,1.15-.85,2.31-1.33,3.44l-1.56,3.28A59.22,59.22,0,0,1,239.77,162c-.73.82-1.37,1.7-2.15,2.44l-2.23,2.23a27.9,27.9,0,0,1-2.27,2l-2.24,1.89c-1.54,1.14-3,2.2-4.48,3.16s-2.91,1.74-4.26,2.49l-3.89,1.89c-1.22.55-2.39.92-3.42,1.33a25.49,25.49,0,0,1-2.79,1L210,181l-1.74.47-.08-.29,1.66-.68c1.07-.48,2.71-1,4.64-2,1-.5,2.07-1,3.21-1.62l3.65-2.11c1.26-.83,2.56-1.76,3.95-2.71s2.69-2.16,4.13-3.31a68.14,68.14,0,0,0,8.17-8.58c1.36-1.61,2.54-3.41,3.8-5.22a12.84,12.84,0,0,0,.88-1.4l.84-1.45a31.53,31.53,0,0,0,1.62-3l1.53-3.1c.47-1.06.87-2.16,1.32-3.25.21-.55.45-1.09.65-1.65l.53-1.7c.33-1.14.76-2.27,1-3.44l.8-3.54a14.14,14.14,0,0,0,.31-1.78l.25-1.79.25-1.8c.09-.6.09-1.24.13-1.86l.21-3.75a67.37,67.37,0,0,0-1.59-14.5c-.24-1.19-.64-2.33-.95-3.49l-.49-1.73c-.19-.57-.41-1.12-.62-1.68-.43-1.11-.81-2.23-1.26-3.31l-1.49-3.16a32.06,32.06,0,0,0-1.63-3l-.84-1.47a13.11,13.11,0,0,0-.89-1.43l-1.86-2.73a12.9,12.9,0,0,0-1-1.31l-1-1.25a64.08,64.08,0,0,0-8.32-8.63c-1.46-1.16-2.86-2.26-4.22-3.28s-2.76-1.84-4-2.64l-3.72-2c-1.16-.61-2.28-1.05-3.27-1.52a46.18,46.18,0,0,0-4.72-1.84l-1.69-.6Z"/><polyline class="cls-3" points="266.38 134.07 219.67 134.07 219.67 108.89 266.38 108.89"/><path d="M267.85,121.49l0,2.72c0,.89,0,2-.14,3.28l-.14,2.08-.26,2.35a73.92,73.92,0,0,1-2.34,11.78,77.53,77.53,0,0,1-16.11,29.85,73.88,73.88,0,0,1-7.15,7.21c-1.28,1.18-2.67,2.25-4,3.36-.7.54-1.43,1.05-2.15,1.58s-1.45,1.05-2.21,1.54a78.22,78.22,0,0,1-20,9.6A81,81,0,0,1,202,199.45a80,80,0,0,1-23.14.27,83.83,83.83,0,0,1-11.3-2.35,76.35,76.35,0,0,1-20.46-9.26,71.23,71.23,0,0,1-8.57-6.51,72,72,0,0,1-7.26-7.31,74.91,74.91,0,0,1-16-30.39c-.27-1.14-.57-2.24-.78-3.32l-.59-3.11c-.16-1-.27-2-.39-2.89s-.22-1.8-.27-2.63l-.18-2.37-.05-2.09c0-1.3-.05-2.4,0-3.29l.1-2.73h.46l.24,2.71c.06.88.2,2,.37,3.23l.28,2,.41,2.29a78,78,0,0,0,3,11.4A80.93,80.93,0,0,0,124.1,157c.69,1.2,1.44,2.4,2.19,3.63s1.59,2.43,2.5,3.61,1.77,2.43,2.77,3.6,2,2.36,3.06,3.53a81.14,81.14,0,0,0,7,6.71c1.24,1.1,2.59,2.09,3.91,3.14.67.51,1.38,1,2.07,1.48s1.4,1,2.13,1.44a77.4,77.4,0,0,0,19.09,9.15,75,75,0,0,0,10.64,2.54,82.56,82.56,0,0,0,11.06,1,83.43,83.43,0,0,0,11-.69,77.72,77.72,0,0,0,10.77-2.27,75.32,75.32,0,0,0,19.5-8.81c.75-.45,1.47-.93,2.17-1.44s1.43-1,2.11-1.48c1.36-1,2.73-2.05,4-3.17a78.36,78.36,0,0,0,7.12-6.81,75.9,75.9,0,0,0,16.64-28.74,73,73,0,0,0,2.66-11.56l.33-2.32.2-2c.13-1.27.22-2.36.23-3.25l.11-2.72Z"/><path d="M113.15,121.47l0-2.72c0-.89,0-2,.14-3.28l.14-2.08.26-2.35a73.92,73.92,0,0,1,2.34-11.78,77.53,77.53,0,0,1,16.11-29.85,73.88,73.88,0,0,1,7.15-7.21c1.28-1.18,2.67-2.25,4-3.36.7-.54,1.43-1.05,2.15-1.58s1.45-1.05,2.21-1.54a78.22,78.22,0,0,1,20-9.6A81,81,0,0,1,179,43.51a80,80,0,0,1,23.14-.27,83.83,83.83,0,0,1,11.3,2.35,76.35,76.35,0,0,1,20.46,9.26,71.23,71.23,0,0,1,8.57,6.51,72,72,0,0,1,7.26,7.31,74.91,74.91,0,0,1,16,30.39c.27,1.14.57,2.24.78,3.32l.59,3.11c.16,1,.27,2,.39,2.89s.22,1.8.27,2.63l.18,2.37.05,2.09c0,1.3.05,2.4,0,3.29l-.1,2.73h-.46l-.24-2.71c-.06-.88-.2-2-.37-3.23l-.28-2-.41-2.29a78,78,0,0,0-3-11.4A80.93,80.93,0,0,0,256.9,86c-.69-1.2-1.44-2.4-2.19-3.63s-1.59-2.43-2.5-3.61-1.77-2.43-2.77-3.6-2-2.36-3.06-3.53a81.14,81.14,0,0,0-7-6.71c-1.24-1.1-2.59-2.09-3.91-3.14-.67-.51-1.38-1-2.07-1.48s-1.4-1-2.13-1.44a77.4,77.4,0,0,0-19.09-9.15,75,75,0,0,0-10.64-2.54,82.56,82.56,0,0,0-11.06-1,83.43,83.43,0,0,0-11,.69,77.72,77.72,0,0,0-10.77,2.27A75.32,75.32,0,0,0,149.18,58c-.75.45-1.47.93-2.17,1.44s-1.43,1-2.11,1.48c-1.36,1-2.73,2.05-4,3.17a78.37,78.37,0,0,0-7.12,6.81,75.9,75.9,0,0,0-16.64,28.74,73,73,0,0,0-2.66,11.56l-.33,2.32-.2,2c-.13,1.27-.22,2.36-.23,3.25l-.11,2.72Z"/><text class="cls-4" transform="matrix(0.32, 0.95, -0.95, 0.32, 98.76, 147.63)">I</text><text class="cls-4" transform="translate(102.05 157.51) rotate(63.73)">n</text><text class="cls-4" transform="translate(108.6 170.17) rotate(57.94)"> </text><text class="cls-4" transform="matrix(0.59, 0.81, -0.81, 0.59, 111.08, 174.26)">c</text><text class="cls-4" transform="translate(116.77 181.95) rotate(47.8)">r</text><text class="cls-4" transform="translate(123.34 189.33) rotate(40.79)">y</text><text class="cls-4" transform="translate(133.82 198.25) rotate(32.99)">p</text><text class="cls-4" transform="translate(144.02 204.7) rotate(27.19)">t</text><text class="cls-4" transform="translate(149.83 207.78) rotate(22.14)">o</text><text class="cls-4" transform="matrix(0.96, 0.27, -0.27, 0.96, 159.41, 211.72)">g</text><text class="cls-4" transform="translate(171.3 214.91) rotate(8.71)">r</text><text class="cls-4" transform="translate(180.95 216.38) rotate(2.66)">a</text><text class="cls-4" transform="translate(190.8 216.9) rotate(-3.63)">p</text><text class="cls-4" transform="translate(202.21 216.25) rotate(-10.98)">h</text><text class="cls-4" transform="translate(216.31 213.42) rotate(-19.62)">y</text><text class="cls-4" transform="matrix(0.9, -0.43, 0.43, 0.9, 229.25, 208.54)"> </text><text class="cls-4" transform="matrix(0.84, -0.55, 0.55, 0.84, 234.23, 206.7)">w</text><text class="cls-4" transform="matrix(0.74, -0.67, 0.67, 0.74, 250.51, 195.6)">e</text><text class="cls-4" transform="translate(258.15 188.55) rotate(-46.52)"> </text><text class="cls-4" transform="translate(261.4 185.17) rotate(-50.08)">t</text><text class="cls-4" transform="matrix(0.57, -0.82, 0.82, 0.57, 266.04, 179.69)">r</text><text class="cls-4" transform="translate(271.68 171.76) rotate(-62.16)">u</text><text class="cls-4" transform="translate(277.93 159.64) rotate(-69.4)">s</text><text class="cls-4" transform="translate(281.47 149.98) rotate(-74.68)">t</text><text class="cls-5" transform="matrix(0.28, -0.96, 0.96, 0.28, 107.08, 102.97)">L</text><text class="cls-5" transform="translate(110.23 92.59) rotate(-68.59)">i</text><text class="cls-5" transform="translate(111.76 88.31) rotate(-63.49)">b</text><text class="cls-5" transform="matrix(0.55, -0.83, 0.83, 0.55, 116.42, 78.93)">e</text><text class="cls-5" transform="translate(122.15 70.38) rotate(-50.62)">r</text><text class="cls-5" transform="translate(126.83 64.64) rotate(-45.39)">t</text><text class="cls-5" transform="matrix(0.78, -0.63, 0.63, 0.78, 132.52, 58.74)">a</text><text class="cls-5" transform="translate(140.86 51.97) rotate(-32.08)">s</text><text class="cls-5" transform="translate(149.51 46.64) rotate(-26.53)"> </text><text class="cls-5" transform="matrix(0.94, -0.33, 0.33, 0.94, 155.02, 43.58)">A</text><text class="cls-5" transform="translate(168.8 38.85) rotate(-11.09)">e</text><text class="cls-5" transform="translate(178.88 36.84) rotate(-4.14)">q</text><text class="cls-5" transform="translate(189.31 36.07) rotate(2.81)">u</text><text class="cls-5" transform="matrix(0.99, 0.14, -0.14, 0.99, 199.93, 36.71)">i</text><text class="cls-5" transform="translate(204.48 37.26) rotate(12.21)">t</text><text class="cls-5" transform="translate(212.47 38.9) rotate(18.61)">a</text><text class="cls-5" transform="translate(222.67 42.33) rotate(25.66)">s</text><text class="cls-5" transform="matrix(0.86, 0.52, -0.52, 0.86, 231.8, 46.81)"> </text><text class="cls-5" transform="matrix(0.78, 0.62, -0.62, 0.78, 237.34, 49.8)">V</text><text class="cls-5" transform="translate(248.53 58.8) rotate(46.35)">e</text><text class="cls-5" transform="matrix(0.61, 0.79, -0.79, 0.61, 255.6, 66.31)">r</text><text class="cls-5" transform="matrix(0.56, 0.83, -0.83, 0.56, 260.12, 72.21)">i</text><text class="cls-5" transform="translate(262.72 75.97) rotate(60.58)">t</text><text class="cls-5" transform="translate(266.82 83.05) rotate(66.96)">a</text><text class="cls-5" transform="translate(271.02 92.94) rotate(74.01)">s</text><path d="M223,120.6c5.26,2.15,10.63,6.87,10.63,17.18,0,0,.64,20.51-31.14,19.76H147.33l12.56-15.36H167V97.83H159.9L147.33,82.37H201s16.21-.32,23.62,5a20.28,20.28,0,0,1,8.48,16.11C233.13,111.79,228.94,117.16,223,120.6ZM205.72,97.83H183V114.5H202.2c10.59,0,12.46-4.15,12.46-8.34C214.66,100.7,210.51,97.83,205.72,97.83ZM183,125.75h0Zm20.51,16.43c6.52,0,11.17-2.13,11.17-9,0-5.26-2.71-8.33-11.7-8.33H183v17.29Z"/><polygon points="159.71 138.27 191.93 138.27 197.19 128.8 154.44 128.8 159.71 138.27"/><path d="M190.83,55.47l1.44,2.88,3.18.48a.37.37,0,0,1,.2.63l-2.29,2.26.53,3.18a.37.37,0,0,1-.54.39L190.5,63.8l-2.86,1.48a.37.37,0,0,1-.54-.39l.53-3.18-2.29-2.26a.37.37,0,0,1,.2-.63l3.18-.48,1.44-2.88A.37.37,0,0,1,190.83,55.47Z"/><path d="M190.83,187.49l1.44-2.88,3.18-.48a.37.37,0,0,0,.2-.63l-2.29-2.26.53-3.18a.37.37,0,0,0-.54-.39l-2.86,1.48-2.86-1.48a.37.37,0,0,0-.54.39l.53,3.18-2.29,2.26a.37.37,0,0,0,.2.63l3.18.48,1.44,2.88A.37.37,0,0,0,190.83,187.49Z"/><polygon points="267.62 122.42 236.38 120.92 267.62 119.42 267.62 122.42"/><line class="cls-2" x1="113.38" y1="120.92" x2="156.75" y2="120.92"/><polygon points="113.38 119.42 156.75 120.92 113.38 122.42 113.38 119.42"/><circle cx="280.62" cy="120.92" r="1.98"/><circle cx="100.38" cy="120.92" r="1.98"/></svg>