<?xml version="1.0" encoding="utf-8"?>
<!-- Generator: Adobe Illustrator 22.0.0, SVG Export Plug-In . SVG Version: 6.00 Build 0)  -->
<svg version="1.1" id="Calque_1" xmlns="http://www.w3.org/2000/svg" xmlns:xlink="http://www.w3.org/1999/xlink" x="0px" y="0px"
	 width="80px" height="80px" viewBox="0 0 80 80" style="enable-background:new 0 0 80 80;" xml:space="preserve">
<style type="text/css">
	.st0{fill:#FFFFFF;}
</style>
<path class="st0" d="M62.2,66.7c-2.3,0-4.3,1.1-5.6,2.9c-1.2-1.8-3.2-2.9-5.6-2.9s-4.3,1.1-5.6,2.9c-1.2-1.8-3.2-2.9-5.6-2.9
	s-4.3,1.1-5.6,2.9c-1.2-1.8-3.2-2.9-5.6-2.9s-4.3,1.1-5.6,2.9c-1.2-1.8-3.2-2.9-5.6-2.9c-3.8,0-6.7,2.9-6.7,6.7S14,80,17.8,80
	c2.3,0,4.3-1.1,5.6-2.9c1.2,1.8,3.2,2.9,5.6,2.9s4.3-1.1,5.6-2.9c1.2,1.8,3.2,2.9,5.6,2.9s4.3-1.1,5.6-2.9c1.2,1.8,3.2,2.9,5.6,2.9
	s4.3-1.1,5.6-2.9c1.2,1.8,3.2,2.9,5.6,2.9c3.8,0,6.7-2.9,6.7-6.7S66,66.7,62.2,66.7z M62.2,35.6c3.8,0,6.7-2.9,6.7-6.7
	s-2.9-6.7-6.7-6.7s-6.7,2.9-6.7,6.7S58.4,35.6,62.2,35.6z M17.8,35.6c3.8,0,6.7-2.9,6.7-6.7s-2.9-6.7-6.7-6.7s-6.7,2.9-6.7,6.7
	S14,35.6,17.8,35.6z M34.4,36.2c-1.2-1.8-3.2-2.9-5.6-2.9c-3.8,0-6.7,2.9-6.7,6.7s2.9,6.7,6.7,6.7c2.3,0,4.3-1.1,5.6-2.9
	c0.4,0.7,1.1,1.3,1.8,1.8c-1.8,1.2-2.9,3.2-2.9,5.6c0,3.8,2.9,6.7,6.7,6.7s6.7-2.9,6.7-6.7c0-2.3-1.1-4.3-2.9-5.6
	c0.7-0.4,1.3-1.1,1.8-1.8c1.2,1.8,3.2,2.9,5.6,2.9c3.8,0,6.7-2.9,6.7-6.7s-2.9-6.7-6.7-6.7c-2.3,0-4.3,1.1-5.6,2.9
	c-0.4-0.7-1.1-1.3-1.8-1.8c1.8-1.2,2.9-3.2,2.9-5.6s-1.1-4.3-2.9-5.6c1.8-1.2,2.9-3.2,2.9-5.6s-1.1-4.3-2.9-5.6
	c1.8-1.2,2.9-3.2,2.9-5.6C46.7,2.9,43.8,0,40,0s-6.7,2.9-6.7,6.7c0,2.3,1.1,4.3,2.9,5.6c-1.8,1.2-2.9,3.2-2.9,5.6s1.1,4.3,2.9,5.6
	c-1.8,1.2-2.9,3.2-2.9,5.6s1.1,4.3,2.9,5.6C35.6,34.9,34.9,35.6,34.4,36.2z"/>
</svg>
