<svg id="Calque_1" data-name="Calque 1" xmlns="http://www.w3.org/2000/svg" viewBox="0 0 400 250"><defs><style>.cls-1,.cls-2,.cls-3{fill:#fff;}.cls-2,.cls-3,.cls-4{stroke:#000;}.cls-2{stroke-linecap:round;stroke-linejoin:round;stroke-width:5px;}.cls-3,.cls-4{stroke-miterlimit:10;}.cls-3{stroke-width:4.94px;}.cls-4{fill:none;stroke-width:1.65px;}.cls-5{font-size:38.68px;font-family:BluuNext-Bold, Bluu Next;font-weight:700;}</style></defs><title>Plan de travail 1</title><path class="cls-1" d="M66.59,205.9c71.06-49.46,171.41,49.15,292.32,3,0,0,.33-149.92-.26-149.92"/><path d="M66.59,205.9a77.76,77.76,0,0,1,16.34-9.2,81,81,0,0,1,18.18-5A108.67,108.67,0,0,1,120,190.5,160.51,160.51,0,0,1,138.78,192c6.23.85,12.42,1.94,18.57,3.22s12.25,2.69,18.33,4.16c12.17,2.92,24.25,6.1,36.37,9,6.06,1.43,12.13,2.79,18.22,4s12.19,2.37,18.32,3.32A259.1,259.1,0,0,0,285.54,219c6.18.1,12.35,0,18.51-.47s12.28-1.18,18.37-2.19a195.52,195.52,0,0,0,35.7-9.57l-1.45,2.1.15-18.74L357,171.4l.48-37.48.6-37.48.34-18.74.17-9.37c0-3.12.16-6.25,0-9.37.29,3.11.33,6.24.46,9.36l.29,9.37.46,18.74q.4,18.74.65,37.48l.24,18.74.18,18.74.15,18.74.08,18.74a2.23,2.23,0,0,1-1.42,2.09h0q-8.85,3.4-18,6a180.21,180.21,0,0,1-18.51,4.15A202.85,202.85,0,0,1,285.46,224a264,264,0,0,1-37.63-3.49c-6.21-1-12.39-2.15-18.53-3.49s-12.24-2.77-18.32-4.28c-12.16-3-24.2-6.36-36.26-9.56-6-1.59-12.07-3.12-18.13-4.51S144.46,196,138.34,195a162.13,162.13,0,0,0-18.46-2.07,106.59,106.59,0,0,0-18.53.5,82.88,82.88,0,0,0-18.07,4.17A80.35,80.35,0,0,0,66.59,205.9Z"/><path class="cls-2" d="M53.41,192.88c79.18-53.58,200.63,47,292.32,3,0,0,.33-149.92-.26-149.92-79.18,53.58-200.63-47-292.32-3Z"/><path d="M312.21,107.72l-2.53.66-3,.8c-1.19.34-2.62.52-4.19.83s-3.33.63-5.26.81l-3,.34c-.52.05-1,.12-1.59.16l-1.65.08c-2.23.08-4.62.31-7.13.24s-5.16,0-7.9-.22a170.61,170.61,0,0,1-17.69-1.89c-6.21-1.05-12.77-2.23-19.43-3.87s-13.55-3.33-20.45-5.34-13.9-4.06-20.87-6.14S183.55,89.95,176.69,88s-13.62-3.9-20.2-5.54-13-3.13-19.08-4.24-11.91-2-17.3-2.62c-2.69-.29-5.28-.43-7.75-.66l-7-.29-6.18,0c-1,0-1.87,0-2.75.1l-2.5.15c-3.18.13-5.65.51-7.35.68l-2.6.3,2.56-.56c1.67-.34,4.11-1,7.29-1.4l2.5-.37c.88-.13,1.79-.27,2.76-.34,1.92-.17,4-.35,6.24-.51l7.12-.2c2.51.06,5.15.09,7.9.22,5.49.33,11.45.82,17.68,1.81s12.78,2.15,19.48,3.65c3.34.78,6.75,1.55,10.16,2.44s6.87,1.78,10.34,2.75c6.92,2,13.93,4,20.9,6.09s13.92,4.28,20.78,6.29l10.19,3c3.37.93,6.69,1.9,10,2.73,6.56,1.74,13,3.2,19,4.47l4.51.82,2.21.4,2.18.33,4.25.65c1.39.2,2.77.32,4.11.48s2.66.34,4,.4l3.79.26c2.46.24,4.8.18,7,.25l1.63,0c.53,0,1.05,0,1.57-.05l3-.1c1.92,0,3.65-.2,5.23-.35l2.24-.21c.7-.06,1.37-.11,2-.22l3.11-.48Z"/><path d="M312.21,133.77l-2.53.66-3,.8c-1.19.34-2.62.52-4.19.83s-3.33.63-5.26.81l-3,.34c-.52.05-1,.12-1.59.16l-1.65.08c-2.23.08-4.62.31-7.13.24s-5.16,0-7.9-.22a170.61,170.61,0,0,1-17.69-1.89c-6.21-1.05-12.77-2.23-19.43-3.87s-13.55-3.33-20.45-5.34-13.9-4.06-20.87-6.14S183.55,116,176.69,114s-13.62-3.9-20.2-5.54-13-3.13-19.08-4.24-11.91-2-17.3-2.62c-2.69-.29-5.28-.43-7.75-.66l-7-.29-6.18,0c-1,0-1.87,0-2.75.1l-2.5.15c-3.18.13-5.65.51-7.35.68l-2.6.3,2.56-.56c1.67-.34,4.11-1,7.29-1.4l2.5-.37c.88-.13,1.79-.27,2.76-.34,1.92-.17,4-.35,6.24-.51l7.12-.2c2.51.06,5.15.09,7.9.22,5.49.33,11.45.82,17.68,1.81s12.78,2.15,19.48,3.65c3.34.78,6.75,1.55,10.16,2.44s6.87,1.78,10.34,2.75c6.92,2,13.93,4,20.9,6.09s13.92,4.28,20.78,6.29l10.19,3c3.37.93,6.69,1.9,10,2.73,6.56,1.74,13,3.2,19,4.47l4.51.82,2.21.4,2.18.33,4.25.65c1.39.2,2.77.32,4.11.48s2.66.34,4,.4l3.79.26c2.46.24,4.8.18,7,.25l1.63,0c.53,0,1.05,0,1.57-.05l3-.1c1.92,0,3.65-.2,5.23-.35l2.24-.21c.7-.06,1.37-.11,2-.22l3.11-.48Z"/><path d="M312.21,162.38l-2.53.66-3,.8c-1.19.34-2.62.52-4.19.83s-3.33.63-5.26.81l-3,.34c-.52.05-1,.12-1.59.16l-1.65.08c-2.23.08-4.62.31-7.13.24s-5.16,0-7.9-.22a170.61,170.61,0,0,1-17.69-1.89c-6.21-1.05-12.77-2.23-19.43-3.87S225.25,157,218.34,155s-13.9-4.06-20.87-6.14-13.92-4.23-20.78-6.23-13.62-3.9-20.2-5.54-13-3.13-19.08-4.24-11.91-2-17.3-2.62c-2.69-.29-5.28-.43-7.75-.66l-7-.29-6.18,0c-1,0-1.87,0-2.75.1l-2.5.15c-3.18.13-5.65.51-7.35.68l-2.6.3,2.56-.56c1.67-.34,4.11-1,7.29-1.4l2.5-.37c.88-.13,1.79-.27,2.76-.34,1.92-.17,4-.35,6.24-.51l7.12-.2c2.51.06,5.15.09,7.9.22,5.49.33,11.45.82,17.68,1.81s12.78,2.15,19.48,3.65c3.34.78,6.75,1.55,10.16,2.44s6.87,1.78,10.34,2.75c6.92,2,13.93,4,20.9,6.09s13.92,4.28,20.78,6.29l10.19,3c3.37.93,6.69,1.9,10,2.73,6.56,1.74,13,3.2,19,4.47l4.51.82,2.21.4,2.18.33,4.25.65c1.39.2,2.77.32,4.11.48s2.66.34,4,.4l3.79.26c2.46.24,4.8.18,7,.25l1.63,0c.53,0,1.05,0,1.57-.05l3-.1c1.92,0,3.65-.2,5.23-.35l2.24-.21c.7-.06,1.37-.11,2-.22l3.11-.48Z"/><circle class="cls-3" cx="195.72" cy="119.41" r="54.43"/><path class="cls-4" d="M180.86,147.63l12.73-53.15h19.91c10,0,17.34,5.65,15.33,17.86-2,12.39-13.92,14.07-27,14.07l-4.74,20.32Z"/><path d="M167,138.24l12.73-53.15h19.91c10,0,17.34,5.65,15.33,17.86-2,12.39-13.31,14.07-26.34,14.07l-5.36,20.32Z"/><polygon class="cls-3" points="312.21 123.86 289.59 93.56 312.21 63.24 334.82 93.56 312.21 123.86"/><polygon class="cls-3" points="86.48 175.91 63.87 145.6 86.48 115.29 109.09 145.6 86.48 175.91"/><text class="cls-5" transform="translate(303.87 103.25)">$</text><text class="cls-5" transform="translate(73.2 156.45)">€</text></svg>